<svg xmlns="http://www.w3.org/2000/svg" version="1.1" xmlns:xlink="http://www.w3.org/1999/xlink" xmlns:svgjs="http://svgjs.com/svgjs" width="1440" height="560" preserveAspectRatio="none" viewBox="0 0 1440 560"><g mask="url(&quot;#SvgjsMask1054&quot;)" fill="none"><rect width="1440" height="560" x="0" y="0" fill="rgba(28, 28, 28, 1)"></rect><path d="M125.182,689.443C173.354,689.259,229.95,690.466,253.663,648.535C277.197,606.921,246.005,559.803,221.817,518.565C198.061,478.065,172.126,430.412,125.182,429.492C77.328,428.554,46.127,473.45,21.753,514.642C-3.265,556.923,-30.03,607.244,-5.012,649.525C19.763,691.395,76.531,689.629,125.182,689.443" fill="rgba(175, 174, 174, 0.68)" class="triangle-float3"></path><path d="M869.178,174.827C908.713,175.484,940.997,145.14,958.738,109.804C974.705,78.002,968.35,41.902,951.708,10.448C933.636,-23.71,907.817,-58.861,869.178,-59.47C829.853,-60.09,799.831,-27.291,782.014,7.772C765.963,39.359,768.241,75.498,784.631,106.91C802.554,141.26,830.438,174.183,869.178,174.827" fill="rgba(175, 174, 174, 0.68)" class="triangle-float1"></path><path d="M385.783,508.737C410.141,509.929,437.004,503.321,448.51,481.819C459.619,461.057,446.643,437.655,434.669,417.38C422.987,397.599,408.708,377.083,385.783,375.606C360.714,373.991,336.318,388.06,324.618,410.29C313.572,431.277,320.344,456.013,332.86,476.158C344.577,495.017,363.607,507.652,385.783,508.737" fill="rgba(175, 174, 174, 0.68)" class="triangle-float3"></path><path d="M1181.184,88.061C1202.123,88.544,1226.09,88.202,1237.078,70.371C1248.4,51.998,1240.685,28.638,1228.975,10.509C1218.366,-5.916,1200.706,-15.06,1181.184,-16.162C1159.17,-17.404,1134.575,-14.26,1123.04,4.531C1111.134,23.925,1116.584,49.215,1129.585,67.892C1140.893,84.137,1161.396,87.605,1181.184,88.061" fill="rgba(175, 174, 174, 0.68)" class="triangle-float1"></path><path d="M1222.481,688.623C1263.963,688.654,1294.965,654.232,1314.269,617.516C1332.075,583.649,1333.641,544.473,1316.168,510.432C1296.917,472.927,1264.625,439.722,1222.481,438.695C1178.917,437.634,1140.41,466.883,1120.539,505.666C1102.261,541.34,1111.42,582.364,1130.93,617.379C1151.103,653.583,1181.036,688.592,1222.481,688.623" fill="rgba(175, 174, 174, 0.68)" class="triangle-float2"></path><path d="M948.853,548.772C996.753,547.665,1033.187,511.96,1058.158,471.069C1084.553,427.847,1104.246,376.613,1081.673,331.278C1057.004,281.734,1004.198,251.782,948.853,251.543C893.102,251.302,840.014,280.795,814.029,330.121C789.53,376.626,802.847,431.589,830.435,476.33C856.465,518.545,899.271,549.918,948.853,548.772" fill="rgba(175, 174, 174, 0.68)" class="triangle-float3"></path><path d="M82.372,339.228C105.563,339.741,130.933,335.874,143.034,316.083C155.521,295.66,149.992,269.645,137.345,249.32C125.458,230.216,104.87,218.887,82.372,218.59C59.312,218.285,36.571,227.988,24.823,247.833C12.87,268.024,13.685,293.64,26.188,313.496C37.951,332.178,60.3,338.739,82.372,339.228" fill="rgba(175, 174, 174, 0.68)" class="triangle-float1"></path><path d="M998.249,662.441C1046.746,664.858,1097.439,648.712,1122.356,607.035C1147.814,564.453,1140.943,510.228,1114.256,468.405C1089.512,429.627,1044.227,411.124,998.249,412.542C954.819,413.882,915.528,437.451,894.009,475.199C872.698,512.583,872.936,558.049,893.867,595.647C915.403,634.33,954.03,660.237,998.249,662.441" fill="rgba(175, 174, 174, 0.68)" class="triangle-float3"></path><path d="M75.635,189.894C119.528,190.779,169.058,183.666,190.073,145.12C210.577,107.511,185.563,65.043,163.828,28.132C142.562,-7.983,117.438,-46.215,75.635,-49.225C29.458,-52.55,-15.01,-26.74,-37.692,13.62C-59.959,53.241,-55.66,102.433,-31.082,140.663C-8.376,175.982,33.656,189.048,75.635,189.894" fill="rgba(175, 174, 174, 0.68)" class="triangle-float2"></path><path d="M1208.094,289.581C1245.946,288.174,1275.669,260.55,1293.946,227.373C1311.494,195.519,1317.685,156.501,1298.389,125.674C1280.001,96.298,1242.709,88.524,1208.094,90.22C1176.774,91.754,1149.526,107.878,1131.922,133.828C1111.335,164.176,1094.311,201.254,1110.422,234.197C1128.045,270.232,1168.008,291.072,1208.094,289.581" fill="rgba(175, 174, 174, 0.68)" class="triangle-float3"></path><path d="M774.63,727.757C821.847,727.111,867.534,708.116,892.559,668.071C919.138,625.539,924.359,571.451,899.549,527.863C874.499,483.854,825.26,461.852,774.63,460.889C722.067,459.89,667.834,477.621,641.204,522.951C614.286,568.771,621.968,626.849,650.976,671.376C677.479,712.057,726.082,728.421,774.63,727.757" fill="rgba(175, 174, 174, 0.68)" class="triangle-float2"></path></g><defs><mask id="SvgjsMask1054"><rect width="1440" height="560" fill="#ffffff"></rect></mask><style>
            @keyframes float1 {
                0%{transform: translate(0, 0)}
                50%{transform: translate(-10px, 0)}
                100%{transform: translate(0, 0)}
            }

            .triangle-float1 {
                animation: float1 5s infinite;
            }

            @keyframes float2 {
                0%{transform: translate(0, 0)}
                50%{transform: translate(-5px, -5px)}
                100%{transform: translate(0, 0)}
            }

            .triangle-float2 {
                animation: float2 4s infinite;
            }

            @keyframes float3 {
                0%{transform: translate(0, 0)}
                50%{transform: translate(0, -10px)}
                100%{transform: translate(0, 0)}
            }

            .triangle-float3 {
                animation: float3 6s infinite;
            }
        </style></defs></svg>