<svg width="45" height="45" viewBox="0 0 45 45" fill="none" xmlns="http://www.w3.org/2000/svg">
<path d="M20.2057 0C18.5488 0 17.2057 1.34315 17.2057 3V17.2057H3C1.34315 17.2057 0 18.5488 0 20.2057V24.7203C0 26.3771 1.34315 27.7203 3 27.7203H17.2057V42C17.2057 43.6569 18.5488 45 20.2057 45H24.7203C26.3771 45 27.7203 43.6569 27.7203 42V27.7203H42C43.6569 27.7203 45 26.3771 45 24.7203V20.2057C45 18.5488 43.6569 17.2057 42 17.2057H27.7203V3C27.7203 1.34315 26.3771 0 24.7203 0H20.2057Z" fill="white"/>
</svg>
