<svg xmlns="http://www.w3.org/2000/svg" version="1.1" xmlns:xlink="http://www.w3.org/1999/xlink" xmlns:svgjs="http://svgjs.com/svgjs" width="1440" height="560" preserveAspectRatio="none" viewBox="0 0 1440 560"><g mask="url(&quot;#SvgjsMask1058&quot;)" fill="none"><rect width="1440" height="560" x="0" y="0" fill="rgba(28, 28, 28, 1)"></rect><path d="M0,533.07C97.741,524.176,160.092,428.88,249.232,387.813C358.531,337.458,505.663,359.15,581.074,265.368C657.944,169.772,670.781,25.941,634.426,-91.217C599.433,-203.987,468.663,-249.891,393.047,-340.577C315.359,-433.746,298.573,-587.451,185.033,-630.166C71.789,-672.77,-49.598,-595.765,-161.231,-549.102C-262.207,-506.893,-369.001,-463.536,-430.374,-372.921C-489.156,-286.131,-481.711,-174.593,-485.823,-69.851C-489.543,24.902,-488.849,119.096,-453.138,206.941C-416.365,297.398,-359.445,378.946,-280.191,435.986C-198.306,494.92,-100.473,542.212,0,533.07" fill="#121212"></path><path d="M1440 1104.513C1540.255 1105.988 1598.857 992.385 1680.227 933.8 1756.3020000000001 879.027 1845.231 845.3489999999999 1902.758 771.335 1970.9009999999998 683.662 2038.821 585.121 2037.536 474.087 2036.1970000000001 358.429 1977.432 246.983 1895.739 165.10000000000002 1816.683 85.85899999999998 1705.121 52.839 1595.362 30.884000000000015 1492.858 10.379999999999995 1391.208 24.831000000000017 1288.373 43.60699999999997 1174.067 64.47800000000001 1031.354 52.670000000000016 962.684 146.40300000000002 893.382 240.99900000000002 970.727 374.244 960.5609999999999 491.067 951.185 598.807 852.654 709.736 905.446 804.1220000000001 959.095 900.04 1108.462 872.9580000000001 1204.273 926.798 1291.833 976.002 1339.573 1103.0349999999999 1440 1104.513" fill="#262626"></path></g><defs><mask id="SvgjsMask1058"><rect width="1440" height="560" fill="#ffffff"></rect></mask></defs></svg>