<svg width="24" height="20" viewBox="0 0 24 20" fill="none" xmlns="http://www.w3.org/2000/svg">
<path d="M20.664 0.707185C20.2663 0.317853 19.6274 0.328013 19.2423 0.72979L17.7951 2.23994L9.84033 10.1947C9.45501 10.5801 8.83211 10.5859 8.43958 10.2079L6.6265 8.46201L5.09366 6.92917C4.70314 6.53865 4.06998 6.53865 3.67945 6.92918L0.707106 9.90152C0.316582 10.292 0.316582 10.9252 0.707107 11.3157L2.23994 12.8486L6.9065 17.5151L8.34633 19.0176C8.73422 19.4223 9.37901 19.4292 9.77542 19.0328L11.2931 17.5151L22.1817 6.6265L23.707 5.10115C24.1005 4.70771 24.0971 4.0688 23.6995 3.67953L20.664 0.707185Z" fill="#282828"/>
</svg>
