<svg width="23" height="21" viewBox="0 0 23 21" fill="none" xmlns="http://www.w3.org/2000/svg">
<path d="M0.964927 0C0.432012 0 0 0.432013 0 0.964927V7.66007C0 8.19299 0.432013 8.625 0.964927 8.625H7.66007C8.19299 8.625 8.625 8.19299 8.625 7.66007V0.964927C8.625 0.432012 8.19299 0 7.66007 0H0.964927ZM12.4649 0C11.932 0 11.5 0.432013 11.5 0.964927V1.91007C11.5 2.44299 11.932 2.875 12.4649 2.875H22.0351C22.568 2.875 23 2.44299 23 1.91007V0.964927C23 0.432013 22.568 0 22.0351 0H12.4649ZM12.4649 5.75C11.932 5.75 11.5 6.18201 11.5 6.71493V7.66007C11.5 8.19299 11.932 8.625 12.4649 8.625H19.1601C19.693 8.625 20.125 8.19299 20.125 7.66007V6.71493C20.125 6.18201 19.693 5.75 19.1601 5.75H12.4649ZM0.964927 11.5C0.432012 11.5 0 11.932 0 12.4649V19.1601C0 19.693 0.432013 20.125 0.964927 20.125H7.66007C8.19299 20.125 8.625 19.693 8.625 19.1601V12.4649C8.625 11.932 8.19299 11.5 7.66007 11.5H0.964927ZM12.4649 11.5C11.932 11.5 11.5 11.932 11.5 12.4649V13.4101C11.5 13.943 11.932 14.375 12.4649 14.375H22.0351C22.568 14.375 23 13.943 23 13.4101V12.4649C23 11.932 22.568 11.5 22.0351 11.5H12.4649ZM12.4649 17.25C11.932 17.25 11.5 17.682 11.5 18.2149V19.1601C11.5 19.693 11.932 20.125 12.4649 20.125H19.1601C19.693 20.125 20.125 19.693 20.125 19.1601V18.2149C20.125 17.682 19.693 17.25 19.1601 17.25H12.4649Z" fill="white"/>
</svg>
