<svg width="22" height="22" viewBox="0 0 22 22" fill="none" xmlns="http://www.w3.org/2000/svg">
<path d="M8.98546 9.60155C9.21428 9.28646 9.58014 9.1 9.96955 9.1H18.7797C19.4483 9.1 19.9916 9.63979 19.9959 10.3084L20 10.95L19.935 11.8365L15.2 14L15.3177 13.6601C15.4723 13.214 15.141 12.7486 14.6689 12.7486H9.08631C8.0927 12.7486 7.51836 11.6217 8.10222 10.8178L8.98546 9.60155Z" fill="#08FFBC"/>
<path d="M9.90003 1H20.8694C21.6707 1 22.1465 1.89519 21.6984 2.55935L20.3488 4.55935C20.1629 4.83486 19.8522 5 19.5198 5H9.90003L10 3L9.90003 1Z" fill="#08FFBC"/>
<path d="M20 11C20 12.9778 19.4135 14.9112 18.3147 16.5557C17.2159 18.2002 15.6541 19.4819 13.8268 20.2388C11.9996 20.9957 9.98891 21.1937 8.0491 20.8079C6.10929 20.422 4.32746 19.4696 2.92894 18.0711C1.53041 16.6725 0.578004 14.8907 0.192152 12.9509C-0.193701 11.0111 0.00433284 9.00043 0.761209 7.17317C1.51809 5.3459 2.79981 3.78412 4.4443 2.6853C6.08879 1.58649 8.02219 1 10 1V5C8.81332 5 7.65328 5.35189 6.66658 6.01118C5.67989 6.67047 4.91085 7.60754 4.45673 8.7039C4.0026 9.80026 3.88378 11.0067 4.11529 12.1705C4.3468 13.3344 4.91825 14.4035 5.75736 15.2426C6.59648 16.0818 7.66558 16.6532 8.82946 16.8847C9.99335 17.1162 11.1997 16.9974 12.2961 16.5433C13.3925 16.0892 14.3295 15.3201 14.9888 14.3334C15.6481 13.3467 16 12.1867 16 11H20Z" fill="#08FFBC"/>
</svg>
