<svg width="22" height="20" viewBox="0 0 22 20" fill="none" xmlns="http://www.w3.org/2000/svg">
<path d="M9.08544 8.60155C9.31426 8.28646 9.68012 8.1 10.0695 8.1H18.8797C19.5483 8.1 20.0916 8.63979 20.0958 9.30844L20.0999 9.95L20.0349 10.8365L15.2999 13L15.4177 12.6601C15.5723 12.214 15.241 11.7486 14.7689 11.7486H9.18629C8.19267 11.7486 7.61833 10.6217 8.20219 9.81776L9.08544 8.60155Z" fill="white"/>
<path d="M10 0H20.9694C21.7706 0 22.2465 0.895187 21.7983 1.55935L20.4487 3.55935C20.2628 3.83486 19.9522 4 19.6198 4H10V0Z" fill="white"/>
<path d="M20.1 10C20.1 11.9778 19.5135 13.9112 18.4147 15.5557C17.3159 17.2002 15.7541 18.4819 13.9268 19.2388C12.0996 19.9957 10.0889 20.1937 8.14908 19.8079C6.20927 19.422 4.42744 18.4696 3.02891 17.0711C1.63039 15.6725 0.677979 13.8907 0.292127 11.9509C-0.0937249 10.0111 0.104308 8.00043 0.861185 6.17317C1.61806 4.3459 2.89979 2.78412 4.54428 1.6853C6.18877 0.58649 8.12217 -2.35852e-08 10.1 0V4C8.91329 4 7.75325 4.35189 6.76656 5.01118C5.77986 5.67047 5.01083 6.60754 4.5567 7.7039C4.10258 8.80026 3.98376 10.0067 4.21527 11.1705C4.44678 12.3344 5.01822 13.4035 5.85734 14.2426C6.69645 15.0818 7.76555 15.6532 8.92944 15.8847C10.0933 16.1162 11.2997 15.9974 12.3961 15.5433C13.4924 15.0892 14.4295 14.3201 15.0888 13.3334C15.7481 12.3467 16.1 11.1867 16.1 10H20.1Z" fill="white"/>
</svg>
