<svg width="300" height="300" viewBox="0 0 300 300" fill="none" xmlns="http://www.w3.org/2000/svg">
<path d="M241 150C241 169.778 235.135 189.112 224.147 205.557C213.159 222.002 197.541 234.819 179.268 242.388C160.996 249.957 140.889 251.937 121.491 248.079C102.093 244.22 84.2746 234.696 70.2893 220.711C56.3041 206.725 46.78 188.907 42.9215 169.509C39.0629 150.111 41.0433 130.004 48.612 111.732C56.1808 93.459 68.9981 77.8412 85.443 66.853C101.888 55.8649 121.222 50 141 50L141 90C129.133 90 117.533 93.5189 107.666 100.112C97.7988 106.705 90.1085 116.075 85.5672 127.039C81.026 138.003 79.8378 150.067 82.1529 161.705C84.468 173.344 90.1824 184.035 98.5736 192.426C106.965 200.818 117.656 206.532 129.295 208.847C140.933 211.162 152.997 209.974 163.961 205.433C174.925 200.892 184.295 193.201 190.888 183.334C197.481 173.467 201 161.867 201 150H241Z" fill="white"/>
<path d="M130.855 136.015C133.143 132.865 136.802 131 140.696 131H228.797C235.484 131 240.916 136.398 240.959 143.084L241 149.5L240.35 158.365L193 180L194.178 176.601C195.723 172.14 192.411 167.486 187.69 167.486V167.486H131.863C121.927 167.486 116.184 156.217 122.023 148.178L130.855 136.015Z" fill="white"/>
<path d="M141 50H251C259.24 50 263.944 59.4076 259 66L244 86C242.111 88.5181 239.148 90 236 90H141V50Z" fill="white"/>
</svg>
