<svg xmlns="http://www.w3.org/2000/svg" version="1.1" xmlns:xlink="http://www.w3.org/1999/xlink" xmlns:svgjs="http://svgjs.com/svgjs" width="1440" height="560" preserveAspectRatio="none" viewBox="0 0 1440 560"><g mask="url(&quot;#SvgjsMask1023&quot;)" fill="none"><rect width="1440" height="560" x="0" y="0" fill="rgba(28, 28, 28, 1)"></rect><path d="M1010 541L658 893" stroke-width="10" stroke="url(#SvgjsLinearGradient1024)" stroke-linecap="round" class="BottomLeft"></path><path d="M471 415L291 595" stroke-width="8" stroke="url(#SvgjsLinearGradient1025)" stroke-linecap="round" class="TopRight"></path><path d="M1083 332L1496 -81" stroke-width="8" stroke="url(#SvgjsLinearGradient1024)" stroke-linecap="round" class="BottomLeft"></path><path d="M533 339L355 517" stroke-width="10" stroke="url(#SvgjsLinearGradient1024)" stroke-linecap="round" class="BottomLeft"></path><path d="M878 239L503 614" stroke-width="10" stroke="url(#SvgjsLinearGradient1025)" stroke-linecap="round" class="TopRight"></path><path d="M1345 401L1086 660" stroke-width="8" stroke="url(#SvgjsLinearGradient1024)" stroke-linecap="round" class="BottomLeft"></path><path d="M1119 319L1360 78" stroke-width="8" stroke="url(#SvgjsLinearGradient1025)" stroke-linecap="round" class="TopRight"></path><path d="M816 440L1084 172" stroke-width="10" stroke="url(#SvgjsLinearGradient1025)" stroke-linecap="round" class="TopRight"></path><path d="M341 385L167 559" stroke-width="6" stroke="url(#SvgjsLinearGradient1025)" stroke-linecap="round" class="TopRight"></path><path d="M408 4L755 -343" stroke-width="10" stroke="url(#SvgjsLinearGradient1024)" stroke-linecap="round" class="BottomLeft"></path><path d="M566 57L267 356" stroke-width="10" stroke="url(#SvgjsLinearGradient1025)" stroke-linecap="round" class="TopRight"></path><path d="M535 267L735 67" stroke-width="6" stroke="url(#SvgjsLinearGradient1025)" stroke-linecap="round" class="TopRight"></path><path d="M151 378L-37 566" stroke-width="6" stroke="url(#SvgjsLinearGradient1025)" stroke-linecap="round" class="TopRight"></path><path d="M322 47L684 -315" stroke-width="10" stroke="url(#SvgjsLinearGradient1025)" stroke-linecap="round" class="TopRight"></path><path d="M7 460L-197 664" stroke-width="8" stroke="url(#SvgjsLinearGradient1025)" stroke-linecap="round" class="TopRight"></path><path d="M1408 85L1232 261" stroke-width="8" stroke="url(#SvgjsLinearGradient1024)" stroke-linecap="round" class="BottomLeft"></path><path d="M739 512L512 739" stroke-width="10" stroke="url(#SvgjsLinearGradient1025)" stroke-linecap="round" class="TopRight"></path><path d="M563 244L830 -23" stroke-width="8" stroke="url(#SvgjsLinearGradient1024)" stroke-linecap="round" class="BottomLeft"></path><path d="M23 41L-328 392" stroke-width="6" stroke="url(#SvgjsLinearGradient1025)" stroke-linecap="round" class="TopRight"></path><path d="M1368 421L1186 603" stroke-width="6" stroke="url(#SvgjsLinearGradient1024)" stroke-linecap="round" class="BottomLeft"></path><path d="M1396 446L1200 642" stroke-width="8" stroke="url(#SvgjsLinearGradient1025)" stroke-linecap="round" class="TopRight"></path><path d="M1230 348L830 748" stroke-width="8" stroke="url(#SvgjsLinearGradient1025)" stroke-linecap="round" class="TopRight"></path><path d="M1246 292L1081 457" stroke-width="10" stroke="url(#SvgjsLinearGradient1024)" stroke-linecap="round" class="BottomLeft"></path><path d="M929 226L510 645" stroke-width="6" stroke="url(#SvgjsLinearGradient1024)" stroke-linecap="round" class="BottomLeft"></path><path d="M1015 374L1176 213" stroke-width="6" stroke="url(#SvgjsLinearGradient1024)" stroke-linecap="round" class="BottomLeft"></path><path d="M1042 101L1293 -150" stroke-width="6" stroke="url(#SvgjsLinearGradient1024)" stroke-linecap="round" class="BottomLeft"></path><path d="M224 5L-141 370" stroke-width="8" stroke="url(#SvgjsLinearGradient1024)" stroke-linecap="round" class="BottomLeft"></path><path d="M266 435L666 35" stroke-width="8" stroke="url(#SvgjsLinearGradient1025)" stroke-linecap="round" class="TopRight"></path><path d="M147 323L-251 721" stroke-width="10" stroke="url(#SvgjsLinearGradient1024)" stroke-linecap="round" class="BottomLeft"></path><path d="M393 194L671 -84" stroke-width="6" stroke="url(#SvgjsLinearGradient1025)" stroke-linecap="round" class="TopRight"></path><path d="M726 391L563 554" stroke-width="10" stroke="url(#SvgjsLinearGradient1025)" stroke-linecap="round" class="TopRight"></path><path d="M1295 410L944 761" stroke-width="10" stroke="url(#SvgjsLinearGradient1024)" stroke-linecap="round" class="BottomLeft"></path><path d="M8 78L203 -117" stroke-width="8" stroke="url(#SvgjsLinearGradient1025)" stroke-linecap="round" class="TopRight"></path><path d="M425 313L830 -92" stroke-width="6" stroke="url(#SvgjsLinearGradient1025)" stroke-linecap="round" class="TopRight"></path><path d="M220 265L476 9" stroke-width="6" stroke="url(#SvgjsLinearGradient1025)" stroke-linecap="round" class="TopRight"></path><path d="M308 321L-93 722" stroke-width="8" stroke="url(#SvgjsLinearGradient1025)" stroke-linecap="round" class="TopRight"></path><path d="M1330 415L1727 18" stroke-width="8" stroke="url(#SvgjsLinearGradient1025)" stroke-linecap="round" class="TopRight"></path><path d="M170 523L-117 810" stroke-width="6" stroke="url(#SvgjsLinearGradient1024)" stroke-linecap="round" class="BottomLeft"></path><path d="M92 105L330 -133" stroke-width="6" stroke="url(#SvgjsLinearGradient1024)" stroke-linecap="round" class="BottomLeft"></path></g><defs><mask id="SvgjsMask1023"><rect width="1440" height="560" fill="#ffffff"></rect></mask><linearGradient x1="100%" y1="0%" x2="0%" y2="100%" id="SvgjsLinearGradient1024"><stop stop-color="rgba(255, 255, 255, 0)" offset="0"></stop><stop stop-color="rgba(255, 255, 255, 1)" offset="1"></stop></linearGradient><linearGradient x1="0%" y1="100%" x2="100%" y2="0%" id="SvgjsLinearGradient1025"><stop stop-color="rgba(255, 255, 255, 0)" offset="0"></stop><stop stop-color="rgba(255, 255, 255, 1)" offset="1"></stop></linearGradient></defs></svg>