<svg width="45" height="45" viewBox="0 0 45 45" fill="none" xmlns="http://www.w3.org/2000/svg">
<path d="M3 0C1.34315 0 0 1.34315 0 3V8.25C0 9.90685 1.34315 11.25 3 11.25H8.25C9.90685 11.25 11.25 9.90685 11.25 8.25V3C11.25 1.34315 9.90685 0 8.25 0H3ZM19.875 0C18.2181 0 16.875 1.34315 16.875 3V8.25C16.875 9.90685 18.2181 11.25 19.875 11.25H25.125C26.7819 11.25 28.125 9.90685 28.125 8.25V3C28.125 1.34315 26.7819 0 25.125 0H19.875ZM36.75 0C35.0931 0 33.75 1.34315 33.75 3V8.25C33.75 9.90685 35.0931 11.25 36.75 11.25H42C43.6569 11.25 45 9.90685 45 8.25V3C45 1.34315 43.6569 0 42 0H36.75ZM3 16.875C1.34315 16.875 0 18.2181 0 19.875V25.125C0 26.7819 1.34315 28.125 3 28.125H8.25C9.90685 28.125 11.25 26.7819 11.25 25.125V19.875C11.25 18.2181 9.90685 16.875 8.25 16.875H3ZM19.875 16.875C18.2181 16.875 16.875 18.2181 16.875 19.875V25.125C16.875 26.7819 18.2181 28.125 19.875 28.125H25.125C26.7819 28.125 28.125 26.7819 28.125 25.125V19.875C28.125 18.2181 26.7819 16.875 25.125 16.875H19.875ZM36.75 16.875C35.0931 16.875 33.75 18.2181 33.75 19.875V25.125C33.75 26.7819 35.0931 28.125 36.75 28.125H42C43.6569 28.125 45 26.7819 45 25.125V19.875C45 18.2181 43.6569 16.875 42 16.875H36.75ZM3 33.75C1.34315 33.75 0 35.0931 0 36.75V42C0 43.6569 1.34315 45 3 45H8.25C9.90685 45 11.25 43.6569 11.25 42V36.75C11.25 35.0931 9.90685 33.75 8.25 33.75H3ZM19.875 33.75C18.2181 33.75 16.875 35.0931 16.875 36.75V42C16.875 43.6569 18.2181 45 19.875 45H25.125C26.7819 45 28.125 43.6569 28.125 42V36.75C28.125 35.0931 26.7819 33.75 25.125 33.75H19.875ZM36.75 33.75C35.0931 33.75 33.75 35.0931 33.75 36.75V42C33.75 43.6569 35.0931 45 36.75 45H42C43.6569 45 45 43.6569 45 42V36.75C45 35.0931 43.6569 33.75 42 33.75H36.75Z" fill="white"/>
</svg>
